<svg xmlns="http://www.w3.org/2000/svg" version="1.0" width="262px" height="299px" viewBox="0 0 262 299" preserveAspectRatio="xMidYMid meet">
    <g fill="#5e1ea6">
        <path d="M108.5 283.5 c-37.3 -5.9 -70 -30.2 -87.8 -65.5 -8.3 -16.5 -12.2 -33.6 -12.2 -53.5 0 -12.3 0.4 -15.2 2.8 -23.8 10.4 -36.6 39.8 -81.8 77.1 -118.7 8.6 -8.5 8.6 -8.5 21.4 4.5 12.3 12.6 29.6 32.5 35.7 41.2 1.7 2.4 3.3 4.3 3.6 4.3 0.3 0 4.2 -4.2 8.7 -9.3 4.4 -5 11 -12.1 14.6 -15.7 6.6 -6.5 6.6 -6.5 13.2 0.5 19.7 20.9 36.4 46.4 47.5 72 9.9 23.1 12.8 37.8 10.9 55 -2.3 22 -8.7 39.9 -20.5 57.6 -25.4 38.2 -70.7 58.4 -115 51.4z m-53.2 -71.6 c-2.3 -10.9 -2.3 -35 0 -45.4 4.7 -20.1 16.5 -36.5 35.4 -49.4 5.1 -3.4 6.9 -4.2 10 -3.9 4.2 0.3 5.8 2.2 32.5 36.1 7.3 9.2 13.5 16.7 13.8 16.7 0.4 0 5.8 -5.8 12 -13 14.6 -16.6 14.5 -16.6 26.3 -4.7 13.4 13.4 18.5 25.1 19.6 45.2 0.6 12 0.6 12 3.9 3.7 5.1 -13 6.6 -20.3 6.6 -33.7 0.1 -15 -1.4 -20.5 -10 -38 -5.7 -11.5 -14.7 -25.4 -24 -37.1 -3.2 -3.9 -3.2 -3.9 -5 -1.7 -1.1 1.2 -7.1 8.5 -13.4 16.2 -10.8 13.3 -11.7 14.1 -15 14.1 -3.3 0 -3.9 -0.6 -12.9 -13.1 -12.3 -17.2 -23.4 -31.3 -31.6 -40.5 -6.6 -7.4 -6.6 -7.4 -11.1 -2.3 -28.3 31.8 -52.2 74.2 -55.2 97.7 -1.6 12.6 1.9 30.6 8.8 44.7 3.7 7.6 9.8 17 10.6 16.2 0.2 -0.2 -0.4 -3.7 -1.3 -7.8z"/>
    </g>
    <g fill="#ffffff">
        <path d="M58.9 229.3 c-14.9 -15.9 -22.5 -32.9 -24.9 -55.6 -0.7 -6.5 -0.7 -12.1 0 -16.9 3.8 -26.3 26.2 -65.6 58.8 -102.7 3.8 -4.4 3.8 -4.4 8.9 1 10.5 11.1 25.3 30 41.8 53.2 2.2 3.1 4.3 5.6 4.7 5.4 0.3 -0.1 5.8 -6.5 12.1 -14.2 19.8 -24.2 17.5 -22.5 22.7 -15.9 11.8 15.2 19.6 27 25.4 38.9 9.1 18.5 10.1 22.7 10 41.5 -0.1 17 -1.5 24.1 -7.4 38.3 -2.8 6.7 -12.7 23.3 -13.5 22.5 -0.2 -0.2 0.5 -3.5 1.6 -7.3 2.9 -10.4 3.6 -24.5 1.5 -33.7 -3.1 -14.1 -11.6 -27.9 -22.8 -37 -4.5 -3.7 -4.5 -3.7 -16.1 9.5 -16.5 18.9 -14.6 17.9 -19.7 11 -7 -9.3 -38.8 -48.9 -40.4 -50.3 -2.8 -2.3 -19.4 10.5 -29 22.3 -17.4 21.6 -20.8 53.1 -9.5 87.1 1.6 4.9 2.8 9.1 2.6 9.3 -0.2 0.2 -3.3 -2.7 -6.8 -6.4z"/>
    </g>
</svg>
